<?xml version="1.0" encoding="utf-8"?>
<!-- Generator: Adobe Illustrator 27.5.0, SVG Export Plug-In . SVG Version: 6.00 Build 0)  -->
<svg version="1.1" xmlns="http://www.w3.org/2000/svg" xmlns:xlink="http://www.w3.org/1999/xlink" x="0px" y="0px"
	 viewBox="0 0 841.89 841.89" style="enable-background:new 0 0 841.89 841.89;" xml:space="preserve">
<g id="Layer_2">
</g>
<g id="Layer_1">
	<g style="opacity:0.34;">
		<path style="fill:#97B7C1;" d="M709.998,742.097c0,10.392-132.077,18.816-295,18.816c-162.924,0-295-8.424-295-18.816
			c0-10.394,132.076-18.819,295-18.819C577.921,723.278,709.998,731.704,709.998,742.097z"/>
	</g>
	<g>
		<g>
			<g>
				<path style="fill:#F4B876;" d="M285.458,443.507c-0.227-13.939,17.128-9.771,21.56-6.744
					c9.384,6.421,20.095,16.072,20.351,40.99c0.682,65.407-19.044,229.241-19.977,236.805c-0.987,8.026,13.713,16.56,13.713,18.765
					c0,1.631-12.709,1.592-16.983,1.771c-2.135,0.09-8.003-5.431-8.173-11.653C295.736,715.764,285.91,470.793,285.458,443.507z"/>
			</g>
		</g>
		<g>
			<g>
				<path style="fill:#F4B876;" d="M289.392,443.507c0.23-13.939-25.3-9.771-29.733-6.744c-9.389,6.421-16.499,12.751-20.246,40.346
					c-8.029,59.155-31.116,210.422-32.099,217.978c-1.283,9.911-5.373,15.361-9.421,18.396c-5.163,3.871-14.699,8.927-20.004,11.952
					c-2.658,1.52-3.698,3.611-2.849,5.419c1.294,2.724,4.848,2.089,7.134,1.707c6.804-1.133,18.827-3.603,30.43-6.462
					c6.563-1.62,7.026-8.869,7.132-10.461C220.132,709.395,288.939,470.793,289.392,443.507z"/>
			</g>
		</g>
		<g>
			<g>
				<path style="fill:#59B7C1;" d="M250.156,400.004l32.332,11.868l34.933,14.566c0,0,11.849,12.456,11.849,45.605
					c0,19.647-14.509,213.097-14.509,213.097l-23.438,1.429l-13.223-167.2l-46.021,168.22l-25.001-5.438
					c0,0,34.059-224.175,36.764-243.017C248.352,407.723,250.156,400.004,250.156,400.004z"/>
			</g>
		</g>
		<g>
			<g>
				<g>
					<g>
						<g>
							<path style="fill:#110A09;" d="M225.061,740.308h-59.479c0,0-0.163-2.781,0.188-4.672c0-0.762,3.542-5.159,4.901-6.155
								c4.59-3.384,13.644-6.419,26.805-12.225c12.016-5.299,27.584,0.309,27.584,5.357
								C225.061,726.221,225.061,740.308,225.061,740.308z"/>
						</g>
					</g>
					<g>
						<g>
							<path style="fill:#FF6D40;" d="M225.061,732.37c0,0.395-59.117,3.559-59.29,3.381c-0.079-0.084-0.116-3.788,1.166-6.744
								c1.869-3.791,16.077-9.846,33.128-17.368c1.668-0.734,0.766-15.513,1.089-15.827c9.233-8.69,23.907,8.47,23.907,12.82
								C225.061,712.235,225.061,728.022,225.061,732.37z"/>
						</g>
					</g>
				</g>
				<g>
					<g>
						<path d="M207.439,722.308c0.211,0,0.418-0.065,0.604-0.195c0.458-0.333,0.563-0.974,0.23-1.436
							c-7.091-9.868-18.847-6.793-18.967-6.759c-0.547,0.148-0.871,0.714-0.719,1.261c0.15,0.547,0.712,0.868,1.26,0.727
							c0.428-0.119,10.51-2.717,16.757,5.976C206.806,722.158,207.121,722.308,207.439,722.308z"/>
					</g>
				</g>
				<g>
					<g>
						<path d="M200.666,725.949c0.209,0,0.422-0.064,0.601-0.195c0.462-0.33,0.567-0.975,0.236-1.436
							c-7.124-9.91-19.453-5.901-19.569-5.86c-0.538,0.179-0.83,0.763-0.648,1.301c0.183,0.538,0.762,0.829,1.302,0.648
							c0.445-0.148,11.017-3.546,17.244,5.111C200.035,725.8,200.346,725.949,200.666,725.949z"/>
					</g>
				</g>
			</g>
			<g style="opacity:0.28;">
				<g>
					<path style="fill:#110A09;" d="M190.529,734.548c-12.981,0.7-24.682,1.282-24.759,1.202c-0.079-0.084-0.116-3.788,1.166-6.744
						c0.598-1.215,2.472-2.663,5.298-4.319c1.082-0.26,2.207-0.411,3.359-0.411C181.838,724.276,187.334,728.361,190.529,734.548z"
						/>
				</g>
			</g>
			<g style="opacity:0.28;">
				<g>
					<path style="fill:#110A09;" d="M225.061,721.451c0,4.528,0,8.923,0,10.919c0,0.101-3.895,0.383-9.669,0.748
						C216.458,727.639,220.188,723.216,225.061,721.451z"/>
				</g>
			</g>
		</g>
		<g>
			<g>
				<g>
					<g>
						<path style="fill:#110A09;" d="M288.682,740.359h36.32c0,0-0.031-2.89,0-4.598c0-0.756-2.076-6.045-3.005-7.362
							c-2.234-3.169-4.574-7.851-11.133-10.746c-11.417-5.029-22.183,0.306-22.183,5.277
							C288.682,726.482,288.682,740.359,288.682,740.359z"/>
					</g>
				</g>
				<g>
					<g>
						<path style="fill:#FF6D40;" d="M310.872,703.054c0.145,1.458-0.321,11.29,0,11.573c6.423,5.732,10.748,10.353,12.515,14.08
							c1.207,2.915,1.688,3.659,1.615,7.283c0,0.04-36.32-0.093-36.32-0.206c0-4.182,0-25.522,0-29.526
							c0,0,2.963-12.104,12.219-12.104C311.228,694.155,310.872,703.054,310.872,703.054z"/>
					</g>
				</g>
				<g>
					<g>
						<path d="M300.773,719.894c0.219,0,0.441-0.072,0.627-0.214c3.454-2.658,7.321-3.587,11.493-2.774
							c0.559,0.104,1.101-0.255,1.208-0.813c0.111-0.556-0.255-1.098-0.814-1.209c-3.284-0.638-8.232-0.617-13.143,3.166
							c-0.449,0.345-0.535,0.992-0.188,1.442C300.159,719.756,300.463,719.894,300.773,719.894z"/>
					</g>
				</g>
				<g>
					<g>
						<path d="M305.58,726.143c0.219,0,0.439-0.072,0.625-0.214c3.565-2.744,7.565-3.646,11.898-2.69
							c0.553,0.119,1.099-0.229,1.224-0.782c0.127-0.557-0.227-1.107-0.78-1.23c-3.4-0.75-8.525-0.832-13.594,3.071
							c-0.45,0.346-0.535,0.994-0.189,1.442C304.969,726.004,305.271,726.143,305.58,726.143z"/>
					</g>
				</g>
			</g>
			<g style="opacity:0.28;">
				<g>
					<path style="fill:#110A09;" d="M319.775,724.427c0.283,0,0.561,0.027,0.838,0.044c1.214,1.524,2.156,2.94,2.773,4.236
						c1.207,2.915,1.688,3.659,1.615,7.283c0,0.024-10.473-0.003-20.173-0.053C306.992,729.238,312.859,724.427,319.775,724.427z"/>
				</g>
			</g>
			<g style="opacity:0.28;">
				<g>
					<path style="fill:#110A09;" d="M288.682,735.785c0-1.571,0-5.556,0-10.135c2.685,1.824,4.794,5.553,5.763,10.221
						C290.99,735.839,288.682,735.811,288.682,735.785z"/>
				</g>
			</g>
		</g>
		<g style="opacity:0.26;">
			<g>
				<path style="fill:#142C30;" d="M275.767,459.849l-1.214,41.617c0,0-0.142,5.528,1.413,8.815c1.499,3.173,2.884,5.75,2.884,5.75
					s-2.004-1.783-3.768-5.663c-1.647-3.625-1.761-8.728-1.761-8.728l0.177-41.791H275.767z"/>
			</g>
		</g>
		<g>
			<g style="opacity:0.26;">
				<polygon style="fill:#142C30;" points="304.349,481.46 320.575,505.372 320.575,499.784 307.299,481.031 				"/>
			</g>
		</g>
		<g>
			<polygon style="fill:#A6DDE0;" points="288.015,680.318 289.119,689.876 316.348,685.704 316.756,677.91 			"/>
		</g>
		<g>
			<polygon style="fill:#A6DDE0;" points="206.33,677.414 206.038,684.727 233.252,688.878 235.813,680.318 			"/>
		</g>
		<g style="opacity:0.26;">
			<path style="fill:#142C30;" d="M235.536,495.484c2.936,1.913,20.389,0.872,33.952-2.938
				c18.635-5.232,33.848-10.284,41.876-10.849c7.111-0.497,13.517,1.786,17.365,3.596c0.343-6.355,0.54-10.978,0.54-13.25
				c0-3.957-0.172-7.61-0.47-10.991l-86.269-13.049C240.912,458.844,238.902,473.225,235.536,495.484z"/>
		</g>
		<g>
			<path style="fill:#3F6F77;" d="M537.023,331.604c0,0-103.177,4.638-92.628,79.783c10.068,71.697,27.14,121.317,52.583,121.841
				c25.447,0.528,70.527-11.333,70.664-13.646C567.902,515.093,537.023,331.604,537.023,331.604z"/>
		</g>
		<g>
			<path style="fill:#1E4C54;" d="M514.123,339.199c-26.589,9.742-54.376,29.508-48.909,69.386
				c9.626,70.171,26.377,118.675,51.777,119.04c13.87,0.201,33.618-3.255,48.706-6.796c1.236-0.528,1.931-0.947,1.95-1.226
				c0.282-4.399-29.459-183.95-29.459-183.95S527.89,336.169,514.123,339.199z"/>
		</g>
		<g>
			<polygon style="fill:#FCC49A;" points="507.368,352.819 452.651,423.629 442.46,401.635 485.376,335.117 			"/>
		</g>
		<g>
			<path style="fill:#EFB289;" d="M594.807,561.762c0,0,20.117,34.601,16.898,65.178c-2.043,19.406-17.696,85.991-17.696,85.991
				s17.526,2.437,18.015,0.976c0.303-0.908,14.301-41.395,19.799-56.39c17.702-48.28,0-100.583,0-100.583L594.807,561.762z"/>
		</g>
		<g>
			<polygon style="fill:#EFB289;" points="523.996,515.897 533.641,711.47 552.141,711.47 561.816,546.474 			"/>
		</g>
		<g>
			<g>
				<g>
					<path style="fill:#9FC1C9;" d="M590.115,740.748h64.551c0,0,0.175-5.035-0.201-6.981c0-0.783-3.818-5.297-5.284-6.326
						c-4.945-3.479-14.705-6.603-28.89-12.565c-12.945-5.45-30.176,0.32-30.176,5.505
						C590.115,724.091,590.115,740.748,590.115,740.748z"/>
				</g>
			</g>
			<g>
				<g>
					<path style="fill:#E1F9FF;" d="M619.467,701.285c0.168,1.52-2.408,7.625-1.963,7.818c18.375,7.73,33.687,13.954,35.704,17.849
						c1.38,3.037,1.346,6.853,1.257,6.938c-0.191,0.177-64.35-3.068-64.35-3.48c0-4.361-0.139-14.988,0-19.161
						c0.136-4.08,3.45-4.934,3.45-4.934s11.391,4.902,12.716,2.94C612.35,700.244,619.467,701.285,619.467,701.285z"/>
				</g>
			</g>
			<g>
				<g>
					<path style="fill:#9FC1C9;" d="M609.558,720.513c0.455,0,0.902-0.211,1.204-0.602c6.569-8.723,17.215-6.107,17.663-5.992
						c0.803,0.211,1.626-0.272,1.831-1.075c0.207-0.801-0.273-1.621-1.074-1.829c-0.532-0.141-13.023-3.26-20.823,7.089
						c-0.497,0.661-0.363,1.606,0.296,2.102C608.927,720.414,609.246,720.513,609.558,720.513z"/>
				</g>
			</g>
			<g>
				<g>
					<path style="fill:#9FC1C9;" d="M616.854,724.251c0.462,0,0.911-0.207,1.203-0.598c6.564-8.715,18.064-5.15,18.181-5.112
						c0.789,0.262,1.635-0.177,1.893-0.973c0.252-0.788-0.183-1.637-0.971-1.886c-0.14-0.047-13.663-4.238-21.503,6.164
						c-0.499,0.66-0.365,1.602,0.298,2.102C616.224,724.151,616.539,724.251,616.854,724.251z"/>
				</g>
			</g>
		</g>
		<g>
			<g>
				<g>
					<path style="fill:#9FC1C9;" d="M527.957,740.748h44.344c0,0-0.043-5.339,0-7.209c0-0.823-2.275-6.604-3.293-8.046
						c-2.44-3.464-4.996-8.588-12.168-11.746c-12.484-5.501-28.883,0.335-28.883,5.769
						C527.957,723.399,527.957,740.748,527.957,740.748z"/>
				</g>
			</g>
			<g>
				<g>
					<path style="fill:#E1F9FF;" d="M553.173,702.048c4.173,0.375,0.646,5.334,0.999,5.648c7.019,6.263,14.424,14.06,16.36,18.137
						c1.323,3.188,1.839,3.998,1.768,7.962c0,0.044-44.344-0.098-44.344-0.227c0-3.51,0-14.543,0-21.469
						c0-2.095,1.689-4.932,3.971-4.836c0,0,1.896,6.26,5.976-2.563C539.44,701.375,553.173,702.048,553.173,702.048z"/>
				</g>
			</g>
			<g>
				<g>
					<path style="fill:#9FC1C9;" d="M536.657,716.611c0.329,0,0.656-0.106,0.934-0.319c8.771-6.76,17.744-0.875,17.838-0.812
						c0.709,0.477,1.659,0.282,2.132-0.417c0.475-0.708,0.285-1.665-0.418-2.137c-0.109-0.075-10.923-7.157-21.427,0.926
						c-0.672,0.517-0.798,1.483-0.276,2.159C535.739,716.4,536.193,716.611,536.657,716.611z"/>
				</g>
			</g>
			<g>
				<g>
					<path style="fill:#9FC1C9;" d="M540.363,723.442c0.33,0,0.658-0.104,0.94-0.32c8.72-6.712,17.473-1.052,17.835-0.807
						c0.713,0.47,1.662,0.277,2.131-0.427c0.472-0.708,0.285-1.658-0.422-2.129c-0.102-0.073-10.924-7.152-21.42,0.922
						c-0.674,0.523-0.8,1.484-0.283,2.16C539.445,723.236,539.902,723.442,540.363,723.442z"/>
				</g>
			</g>
		</g>
		<g>
			<path style="fill:#6EB3BA;" d="M565.96,604.41l5.205-52.046c0.303-1.656,2.317-4.624,4.967-2.204
				c3.372,3.078,21.413,23.745,29.028,54.25h39.163c-3.052-43.958-26.165-123.484-26.165-123.484H513.933l8.319,123.484H565.96z"/>
		</g>
		<g>
			<g>
				<path style="fill:#5B3B1B;" d="M282.095,135.757h5.888c29.018,0,52.273,22.605,52.273,50.485v149.037h-12.571h-78.29
					l-2.122-59.25l-1.971,33.07l-12.729,26.18V186.242C232.572,158.362,252.233,135.757,282.095,135.757z"/>
			</g>
		</g>
		<g>
			<g>
				<g>
					<path style="fill:#19DBB6;" d="M400.654,297.903c-46.441-8.92-90.697-0.069-119.795,15.93
						c-11.486,6.316-13.04,13.81-13.887,16.663l22.139,4.385c17.498-7.953,44.482-14.476,67.787-16.141
						c8.433-0.604,17.678-4.038,27.139-3.753C402.731,315.555,411.426,299.971,400.654,297.903z"/>
				</g>
			</g>
		</g>
		<g>
			<g>
				<g>
					<path style="fill:#19DBB6;" d="M443.531,328.411c-15.994,1.853-41.222-9.831-32.185-19.771
						c17.442-19.195,86.902-20.462,128.744-0.346c0,0-3.354,7.99-6.094,12.658c-2.5,4.25-15.881,3.773-15.881,3.773
						C499.856,316.341,459.992,326.506,443.531,328.411z"/>
				</g>
			</g>
		</g>
		<g>
			<path style="fill:#EFB289;" d="M593.76,299.91c0,0,18.529,13.571,31.625,26.892c46.67,47.475,49.084,80.466,49.084,80.466
				l-14.659,9.087l-60.35-64.909L593.76,299.91z"/>
		</g>
		<g>
			<g>
				<path style="fill:#315C66;" d="M456.32,371.352c-3.994-5.581-8.181-18.617,4.595-28.013
					c11.483-8.438,27.557-14.912,36.06-10.961c7.834,3.646,12.706,11.413,12.913,11.743l-6.116,3.788
					c-0.037-0.054-3.986-6.283-9.83-8.996c-4.303-2.004-17.168,1.705-28.76,10.223c-10.033,7.379-3.75,16.97-2.998,18.041
					L456.32,371.352z"/>
			</g>
		</g>
		<g>
			<path style="fill:#315C66;" d="M457.716,451.809l-9.324,4.521c0,0-0.948,25.938,7.911,43.91
				c8.849,17.976,16.602,21.965,20.805,20.017C481.313,518.314,457.716,451.809,457.716,451.809z"/>
		</g>
		<g>
			<g>
				<path style="fill:#F6FF7B;" d="M515.894,482.101l107.88,0.805c1.61-60.35-0.821-109.006-0.485-118.263
					c1.287-35.207-12.754-54.579-22.361-60.513c-14.952-9.243-37.53-9.243-37.53-9.243s-22.437,0-37.388,9.243
					c-9.609,5.934-23.643,25.306-22.359,60.513C503.983,373.9,511.317,416.15,515.894,482.101z"/>
			</g>
		</g>
		<g>
			<g>
				<path style="fill:#FCC49A;" d="M578.803,303.036c0,6.711-4.649,15.125-16.073,15.157c-11.44,0.025-14.722-8.597-14.722-15.157
					c0-9.622,0-31.471,0-31.471h30.795C578.803,271.564,578.803,293.04,578.803,303.036z"/>
			</g>
		</g>
		<g>
			<g>
				<g>
					<g>
						<path style="fill:#EDB28A;" d="M521.162,222.633c4.753,0,8.611-3.864,8.611-8.611c0-4.755-3.858-8.622-8.611-8.622h-6.818
							c-4.748,0-8.608,3.866-8.608,8.622c0,4.747,3.86,8.611,8.608,8.611H521.162z"/>
					</g>
				</g>
				<g>
					<g>
						<path style="fill:#F2E6DC;" d="M521.162,217.4c1.867,0,3.382-1.516,3.382-3.378c0-1.872-1.515-3.393-3.382-3.393h-6.818
							c-1.86,0-3.375,1.521-3.375,3.393c0,1.861,1.515,3.378,3.375,3.378H521.162z"/>
					</g>
				</g>
			</g>
			<g>
				<g>
					<g>
						<path style="fill:#EDB28A;" d="M612.455,222.633c4.754,0,8.62-3.864,8.62-8.611c0-4.755-3.866-8.622-8.62-8.622h-6.813
							c-4.75,0-8.619,3.866-8.619,8.622c0,4.747,3.869,8.611,8.619,8.611H612.455z"/>
					</g>
				</g>
				<g>
					<g>
						<path style="fill:#F2E6DC;" d="M612.455,217.4c1.873,0,3.39-1.516,3.39-3.378c0-1.872-1.517-3.393-3.39-3.393h-6.813
							c-1.871,0-3.387,1.521-3.387,3.393c0,1.861,1.516,3.378,3.387,3.378H612.455z"/>
					</g>
				</g>
			</g>
		</g>
		<g>
			<g>
				<path style="fill:#F2E6DC;" d="M578.803,287.979c-4.911,1.765-10.09,2.735-15.401,2.735c-5.302,0-10.482-0.97-15.393-2.735
					c0-8.439,0-16.415,0-16.415h30.795C578.803,271.564,578.803,279.508,578.803,287.979z"/>
			</g>
		</g>
		<g>
			<g>
				<path style="fill:#FCC49A;" d="M563.401,138.354c-24.433,0-44.241,15.693-44.241,40.128v56.629
					c0,24.433,19.809,48.045,44.241,48.045c24.431,0,44.246-23.613,44.246-48.045v-56.629
					C607.647,154.047,587.832,138.354,563.401,138.354z"/>
			</g>
		</g>
		<g>
			<g>
				<path style="fill:#E2A479;" d="M556.98,226.546c0,0,1.43,0.954,5.71,0.954c5.185,0,7.139-0.716,7.139-0.716
					s-1.067,5.303-6.187,5.357C558.319,232.194,556.875,228.307,556.98,226.546z"/>
			</g>
		</g>
		<g>
			<g>
				<path style="fill:#934916;" d="M580.194,195.797h14.355c1.082,0,1.951-0.872,1.951-1.946c0-1.077-0.869-1.947-1.951-1.947
					h-14.355c-1.079,0-1.948,0.87-1.948,1.947C578.246,194.925,579.115,195.797,580.194,195.797z"/>
			</g>
		</g>
		<g>
			<g>
				<path style="fill:#934916;" d="M545.174,197.923c0.803,0,1.551-0.497,1.831-1.294c0.364-1.012-0.165-2.127-1.18-2.49
					l-13.863-4.95c-1.009-0.357-2.128,0.169-2.488,1.178c-0.364,1.015,0.169,2.13,1.178,2.49l13.868,4.953
					C544.733,197.884,544.955,197.923,545.174,197.923z"/>
			</g>
		</g>
		<g>
			<g style="opacity:0.3;">
				<g>
					<path style="fill:#FF8F71;" d="M546.938,225.404c0,2.528-2.049,4.576-4.575,4.576h-10.059c-2.527,0-4.574-2.047-4.574-4.576
						l0,0c0-2.523,2.047-4.573,4.574-4.573h10.059C544.89,220.831,546.938,222.881,546.938,225.404L546.938,225.404z"/>
				</g>
			</g>
			<g style="opacity:0.3;">
				<g>
					<path style="fill:#FF8F71;" d="M599.074,225.404c0,2.528-2.041,4.576-4.578,4.576h-10.06c-2.518,0-4.565-2.047-4.565-4.576l0,0
						c0-2.523,2.048-4.573,4.565-4.573h10.06C597.033,220.831,599.074,222.881,599.074,225.404L599.074,225.404z"/>
				</g>
			</g>
		</g>
		<g>
			<g>
				<g>
					<path style="fill:#3F2919;" d="M589.437,210.454c0.115-0.387,0.252-0.751,0.252-1.173c0-2.42-2.097-4.385-4.672-4.385
						c-2.585,0-4.681,1.965-4.681,4.385c0,0.422,0.145,0.786,0.255,1.173H589.437z"/>
				</g>
			</g>
			<g>
				<g>
					<path style="fill:#3F2919;" d="M544.444,210.454c0.116-0.387,0.251-0.751,0.251-1.173c0-2.42-2.094-4.385-4.678-4.385
						c-2.58,0-4.67,1.965-4.67,4.385c0,0.422,0.139,0.786,0.256,1.173H544.444z"/>
				</g>
			</g>
		</g>
		<g>
			<g>
				<path style="fill:#F2E6DC;" d="M565.371,134.51c24.43,0,42.276,19.537,42.276,43.972c0,0-3.536-27.409-25.859-20.896
					c-11.062,3.222-44.09,37.343-44.09,37.343c-0.231,1.86-8.595-36.142-9.198-36.109c-6.149,0.342-9.881,6.411-9.229,20.983
					c0.247,5.604,0,26.335,0,26.335s-0.041-0.344-0.11-0.954l-1.612-35.143C517.548,145.608,540.938,134.51,565.371,134.51z"/>
			</g>
		</g>
		<g>
			<g>
				<path style="fill:#C66320;" d="M511.732,138.924l21.034-7.42l-3.499-5.228c4.164-4.093,40.221-12.639,66.703,3.25
					c1.559,0.938,14.358,9.062,14.358,30.254c0,10.938-2.977,45.626-2.977,45.626s0.06-18.975-0.243-26.673
					c-0.66-16.915-12.221-27.377-25.321-23.745c-11.103,3.075-44.251,33.284-44.251,33.284c-0.174-0.509-8.455-29.046-9.059-29.014
					c-6.151,0.342-9.208,9.535-9.208,17.949c0,5.613,0,26.337,0,26.337s-3.253-28.057-4.627-42.749
					c-0.218-2.232-0.325-2.412-0.567-4.269C512.757,146.616,511.732,138.924,511.732,138.924z"/>
			</g>
		</g>
		<g>
			<path style="fill:#C66320;" d="M602.289,135.372c0,0-6.055-10.164-23.856-17.527c-4.708-1.949-11.359-3.409-11.359-3.409
				l4.22,9.572L602.289,135.372z"/>
		</g>
		<g>
			<g>
				<path style="fill:#FFFFFF;" d="M542.188,237.117c0,0,7.367,4.372,20.827,4.372c13.458,0,21.47-4.372,21.47-4.372
					s-3.208,18.514-21.47,18.514C547.445,255.631,542.451,240.572,542.188,237.117z"/>
			</g>
		</g>
		<g style="opacity:0.3;">
			<polygon style="fill:#142C30;" points="575.725,487.237 577.466,528.649 578.758,487.146 			"/>
		</g>
		<g style="opacity:0.3;">
			<path style="fill:#142C30;" d="M524.375,517.167c1.795-0.414,3.816-1.021,6.068-1.901c10.615-4.127,20.595-17.169,20.84-17.535
				l-4.463-2.232C539.506,509.597,524.439,516.561,524.375,517.167z"/>
		</g>
		<g style="opacity:0.3;">
			<path style="fill:#142C30;" d="M625.492,507.869c-0.309-1.193-0.614-2.364-0.914-3.501c-3.943-3.156-7.932-7.084-10.66-11.692
				l-2.911,1.136C611.201,494.104,617.56,502.403,625.492,507.869z"/>
		</g>
		<g>
			<g>
				<path style="fill:#FCC49A;" d="M161.992,226.92l-15.534-2.483c0,0-0.116,72.86,17.021,87.145l13.622-19.362
					C162.705,257.065,161.992,226.92,161.992,226.92z"/>
			</g>
			<g>
				<path style="fill:#FCC49A;" d="M260.522,311.255c-5.732-4.391-26.421-0.497-44.891-2.483
					c-31.554-3.391-39.933-18.084-40.944-20.515c-0.078-0.185-17.385,13.087-17.385,13.087c0.421,4.212,5.264,11.08,10.387,14.716
					c26.639,18.925,79.412,20.984,91.449,12.444C265.68,323.863,262.7,312.924,260.522,311.255z"/>
			</g>
		</g>
		<g>
			<path style="fill:#FCC49A;" d="M163.912,209.724c0.071-0.217,4.892-23.065,4.892-23.065c0.163-1.16-0.645-2.232-1.804-2.398
				c-1.16-0.164-1.752,0.5-2.398,1.804l-5.64,15.694l-0.812,0.028l-2.855-18.995c-0.087-1.13-0.896-2.436-2.172-2.515
				c-1.274-0.072-2.502,0.578-2.439,2.809l1.914,18.889l-0.49,0.016c0,0-0.946-1.134-2.537-1.059
				c-1.88,0.091-2.807,1.239-2.807,1.239s-1.099,1.538-2.672,1.566c-2.764,0.048-2.454,2.341-2.454,2.341
				c-0.148,4.365-0.404,10.287-0.319,13.314c0.197,7.415,4.604,8.837,6.629,9.206c3.648,0.665,5.645,0.21,8.309,0.21
				c6.851,0,12.664-8.819,12.887-11.843C169.592,210.842,163.82,209.988,163.912,209.724z"/>
		</g>
		<g>
			<path style="fill:#FF6D40;" d="M379.158,336.457c-18.443-13.786-54.632-37.079-71.772-37.808
				c-5.954-1.995-13.398-3.186-22.758-3.044c-0.027,0-4.396,0.079-10.371,1.342c-11.498,0.57-33.417,4.4-51.845,4.963
				c-15.932,0.485-28.748,0.918-28.748,0.918l5.748,43.123c0,0,15.524-2.299,28.404-4.37c4.434-0.71,7.623,2.482,7.816,11.139
				c-0.025,30.125-0.919,80.589-6.122,107.337c-2.617,13.46,2.439,19.864,4.927,19.996c0.297,0.018-0.307,12.622-0.307,12.622
				c9.851,1.367,31.527-0.384,67.78-12.183c12.078-3.934,23.034-0.57,27.059,1.845c0,0,0.833-3.706,1.021-7.661
				c0.128-2.681,4.212-2.168,4.34-7.401c0.322-13.268-2.741-97.861-3.058-115.881c9.674,4.936,20.145,9.241,29.177,13.975
				C366.531,353.032,373.279,348.169,379.158,336.457z"/>
		</g>
		<g>
			<g>
				<path style="fill:#FFFFFF;" d="M442.107,310.633c0,10.005-10.762,20.343-23.483,20.343c-12.718,0-23.827-10.455-23.827-20.457
					c0-10.011,11.109-15.779,23.827-15.779C431.346,294.741,442.107,300.628,442.107,310.633z"/>
			</g>
		</g>
		<g>
			<path style="fill:#EAB45E;" d="M470.631,482.211h-54.159v0.01l-57.376,0.279l18.322,230.307h26.25l9.21-153.775
				c0.333-2.723,2.292-4.188,4.404-4.454c2.119,0.266,4.073,1.732,4.409,4.454l8.901,153.775h27.024L470.631,482.211z"/>
		</g>
		<g style="opacity:0.5;">
			<g>
				<path style="fill:#4EA8A3;" d="M413.41,489.299c0,1.615-1.313,2.936-2.935,2.936c-1.613,0-2.936-1.32-2.936-2.936
					c0-1.623,1.323-2.935,2.936-2.935C412.098,486.364,413.41,487.676,413.41,489.299z"/>
			</g>
		</g>
		<g style="opacity:0.5;">
			<polygon style="fill:#4EA8A3;" points="469.478,502.644 404.481,502.644 404.481,489.787 402.148,489.787 402.148,502.644 
				360.698,502.644 360.834,504.338 411.42,504.338 413.08,548.288 413.478,504.338 469.381,504.338 			"/>
		</g>
		<g>
			<g>
				<path style="fill:#FCC49A;" d="M271.294,297.936c0,6.216,5.382,14.031,14.451,14.031c10.204,0,14.055-7.954,14.055-14.031
					c0-8.903,0-26.677,0-26.677h-28.506C271.294,271.259,271.294,288.693,271.294,297.936z"/>
			</g>
		</g>
		<g>
			<g>
				<path style="fill:#F2E6DC;" d="M299.702,287.434c-4.649,1.755-9.555,2.755-14.608,2.755c-4.79,0-9.465-0.875-13.9-2.462
					c0-8.333,0-16.468,0-16.468h28.509C299.702,271.259,299.702,279.237,299.702,287.434z"/>
			</g>
		</g>
		<g>
			<g>
				<path style="fill:#EDB28A;" d="M331.34,229.081c4.512,0,8.184-3.669,8.184-8.181c0-4.519-3.672-8.193-8.184-8.193h-6.516
					c-4.513,0-8.188,3.675-8.188,8.193c0,4.512,3.675,8.181,8.188,8.181H331.34z"/>
			</g>
		</g>
		<g>
			<g>
				<path style="fill:#F2E6DC;" d="M331.34,223.685c1.534,0,2.782-1.247,2.782-2.785c0-1.542-1.248-2.794-2.782-2.794h-6.516
					c-1.537,0-2.79,1.252-2.79,2.794c0,1.538,1.253,2.785,2.79,2.785H331.34z"/>
			</g>
		</g>
		<g>
			<g>
				<path style="fill:#EDB28A;" d="M244.104,229.081c4.516,0,8.186-3.669,8.186-8.181c0-4.519-3.671-8.193-8.186-8.193h-6.516
					c-4.512,0-8.189,3.675-8.189,8.193c0,4.512,3.678,8.181,8.189,8.181H244.104z"/>
			</g>
		</g>
		<g>
			<g>
				<path style="fill:#F2E6DC;" d="M244.104,223.685c1.536,0,2.786-1.247,2.786-2.785c0-1.542-1.25-2.794-2.786-2.794h-6.516
					c-1.537,0-2.789,1.252-2.789,2.794c0,1.538,1.252,2.785,2.789,2.785H244.104z"/>
			</g>
		</g>
		<g>
			<g>
				<path style="fill:#FCC49A;" d="M241.629,238.785c0,23.351,18.929,45.913,42.275,45.913l0,0
					c23.352,0,42.276-22.563,42.276-45.913v-49.719c0-23.352-20.466-29.542-30.002-29.542h-23.637
					c-18.184,0-30.913,6.19-30.913,29.542V238.785z"/>
			</g>
		</g>
		<g>
			<g>
				<path style="fill:#E0C0A9;" d="M288.038,232.865c0,0-1.619,1.488-5.708,1.488c-4.096,0-6.57-1.259-6.57-1.259
					s1.306,5.118,6.191,5.118C286.419,238.211,288.142,234.549,288.038,232.865z"/>
			</g>
		</g>
		<g style="opacity:0.3;">
			<g>
				<path style="fill:#FF8F71;" d="M299.276,231.778c0,2.413,1.954,4.372,4.368,4.372h9.611c2.414,0,4.375-1.958,4.375-4.372l0,0
					c0-2.411-1.961-4.368-4.375-4.368h-9.611C301.23,227.411,299.276,229.368,299.276,231.778L299.276,231.778z"/>
			</g>
		</g>
		<g style="opacity:0.3;">
			<g>
				<path style="fill:#FF8F71;" d="M249.461,231.778c0,2.413,1.951,4.372,4.37,4.372h9.614c2.411,0,4.366-1.958,4.366-4.372l0,0
					c0-2.411-1.955-4.368-4.366-4.368h-9.614C251.412,227.411,249.461,229.368,249.461,231.778L249.461,231.778z"/>
			</g>
		</g>
		<g>
			<g>
				<path style="fill:#5B3B1B;" d="M299.2,202.983h12.881c0.694,0,1.257-0.563,1.257-1.261c0-0.696-0.563-1.261-1.257-1.261H299.2
					c-0.697,0-1.264,0.565-1.264,1.261C297.936,202.421,298.503,202.983,299.2,202.983z"/>
			</g>
		</g>
		<g>
			<g>
				<path style="fill:#5B3B1B;" d="M249.36,202.983h12.137c0.698,0,1.26-0.563,1.26-1.261c0-0.696-0.561-1.261-1.26-1.261H249.36
					c-0.692,0-1.262,0.565-1.262,1.261C248.099,202.421,248.668,202.983,249.36,202.983z"/>
			</g>
		</g>
		<g>
			<g>
				<path style="fill:#F2E6DC;" d="M260.767,163.894c20.19-29.624,76.965-13.802,76.965,35.71c0,0.559-35.567,0.347-57.841,0.162
					l-1.584-13.713l-3.951,13.667c-7.197-0.066-12.025-0.116-12.025-0.116S260.282,164.607,260.767,163.894z"/>
			</g>
		</g>
		<g>
			<g>
				<path style="fill:#F2E6DC;" d="M266.355,156.625c0,0-17.348-5.779-25.547,17.96c-4.996,14.46-3.154,25.262-3.154,25.262h21.133
					L266.355,156.625z"/>
			</g>
		</g>
		<g>
			<g>
				<path style="fill:#5B3B1B;" d="M260.767,158.615c20.19-30.699,76.965-14.298,76.965,37.006c0,0.577-35.567,0.362-57.841,0.168
					l-1.584-14.213l-3.951,14.168c-7.197-0.07-12.025-0.123-12.025-0.123S260.282,159.362,260.767,158.615z"/>
			</g>
		</g>
		<g>
			<g>
				<path style="fill:#5B3B1B;" d="M264.744,151.085c0,0-17.346-5.993-25.545,18.608c-4.995,14.985-3.154,26.177-3.154,26.177
					h21.133L264.744,151.085z"/>
			</g>
		</g>
		<g>
			<path style="fill:#FCC49A;" d="M284.628,295.605c-0.027,0-4.396,0.079-10.371,1.342c-6.169,0.305-15.344,1.55-25.362,2.724
				c5.066,11.497,20.938,19.889,39.739,19.889c16.93,0,31.48-6.806,37.912-16.552c-7.378-2.521-12.776-3.982-19.354-5.284
				C300.584,296.529,293.987,295.464,284.628,295.605z"/>
		</g>
		<g>
			<g>
				<path style="fill:#5B3B1B;" d="M308.375,151.507c0,0,10.096,2.948,10.935,21.87c0.839,18.925,0,144.844,0,144.844
					s1.282,38.395-11.777,41.846c-0.163,0.04,26.917,2.94,26.917-24.808c0-21.099,0-164.402,0-164.402
					S334.865,150.247,308.375,151.507z"/>
			</g>
		</g>
		<g>
			<path style="fill:#F6FF7B;" d="M653.652,352.17c-7.074-11.162-16.521-23.291-29.211-35.697
				c-13.357-13.06-30.682-16.563-30.682-16.563l5.7,51.536l22.555,24.259L653.652,352.17z"/>
		</g>
		<g>
			<path style="fill:#315C66;" d="M584.928,298.154c0,0,20.413-2.778,32.008,55.202c7.241,36.21,7.442,71.212,7.442,71.212
				s5.352-13.68,5.834-18.508c1.007-10.058,5.834-33.393-7.845-75.638c-6.963-21.503-20.688-30.468-20.688-30.468
				s-7.101-2.115-14.104-2.678C586.88,297.221,584.928,298.154,584.928,298.154z"/>
		</g>
		<g style="opacity:0.3;">
			<path style="fill:#142C30;" d="M624.518,337.435c-1.185-0.361-2.048-0.399-2.048-0.399l-1.863,9.197
				c-2.334-1.141-5.067-2.538-7.227-3.81c-4.709-2.771-7.381-7.666-10.548-4.157c-1.949,2.157,1.137,6.775,1.137,6.775
				s-1.786,2.308-2.6,9.851c-0.809,7.544,0.489,7.233,5.193,10.619c3.636,2.616,12.607,5.521,15.819,7.124
				c3.213,4.84,6.619,10.011,10.001,15.005C632.108,374.936,630.322,357.511,624.518,337.435z"/>
		</g>
		<g>
			<path style="fill:#FCC49A;" d="M674.469,396.002c-6.65-14.773-22.105-24.485-36.241-37.737
				c-0.044-0.043-2.921-3.084-4.218-14.768c-1.051-9.44-8.924-9.735-8.924-9.735l-4.871,25.317c0,0,29.319,48.427,35.266,55.424
				C663.756,424.239,685.506,420.51,674.469,396.002z"/>
		</g>
		<g>
			<path style="fill:#FCC49A;" d="M628.17,345.931c0,0-7.468-3.567-12.174-6.491c-4.709-2.92-7.381-8.085-10.548-4.383
				c-1.95,2.274,1.138,7.143,1.138,7.143s-1.786,2.433-2.601,10.385c-0.809,7.954,0.489,7.626,5.195,11.197
				c5.091,3.861,20.934,9.74,24.015,7.464C636.279,368.976,628.17,345.931,628.17,345.931z"/>
		</g>
		<g>
			<g>
				<g>
					<path style="fill:#FFFFFF;" d="M429.047,740.748h48.303c0,0-0.045-3.162,0-5.032c0-0.822-2.478-6.604-3.588-8.046
						c-2.655-3.464-5.44-8.587-13.255-11.746c-13.597-5.501-31.46,0.335-31.46,5.769
						C429.047,725.576,429.047,740.748,429.047,740.748z"/>
				</g>
			</g>
			<g>
				<g>
					<path style="fill:#10B595;" d="M456.514,704.226c4.546,0.374,0.706,5.333,1.089,5.646c7.645,6.263,15.713,14.062,17.822,18.137
						c1.44,3.189,2.003,3.998,1.925,7.962c0,0.044-48.303-0.098-48.303-0.226c0-3.511,0-14.544,0-21.47
						c0-2.094,1.842-4.932,4.326-4.836c0,0,2.065,6.261,6.507-2.561C441.554,703.552,456.514,704.226,456.514,704.226z"/>
				</g>
			</g>
			<g>
				<g>
					<path style="fill:#E1EDEF;" d="M438.524,718.788c0.356,0,0.713-0.107,1.018-0.319c9.551-6.76,19.327-0.875,19.429-0.81
						c0.773,0.476,1.81,0.281,2.321-0.418c0.518-0.708,0.311-1.665-0.455-2.137c-0.12-0.074-11.896-7.156-23.34,0.926
						c-0.73,0.517-0.869,1.484-0.302,2.159C437.525,718.577,438.018,718.788,438.524,718.788z"/>
				</g>
			</g>
			<g>
				<g>
					<path style="fill:#E1EDEF;" d="M442.56,725.619c0.361,0,0.716-0.104,1.023-0.32c9.5-6.712,19.036-1.051,19.429-0.807
						c0.776,0.47,1.811,0.277,2.32-0.426c0.516-0.708,0.311-1.659-0.459-2.13c-0.112-0.073-11.897-7.152-23.333,0.922
						c-0.732,0.523-0.87,1.485-0.307,2.16C441.563,725.414,442.059,725.619,442.56,725.619z"/>
				</g>
			</g>
		</g>
		<g>
			<g>
				<g>
					<path style="fill:#FFFFFF;" d="M408.127,740.748H360.77c0,0,0.045-3.162,0-5.032c0-0.822,2.428-6.604,3.515-8.046
						c2.607-3.464,5.337-8.587,12.997-11.746c13.332-5.501,30.846,0.335,30.846,5.769
						C408.127,725.576,408.127,740.748,408.127,740.748z"/>
				</g>
			</g>
			<g>
				<g>
					<path style="fill:#10B595;" d="M381.198,704.226c-4.457,0.374-0.692,5.333-1.068,5.646
						c-7.495,6.263-15.405,14.062-17.472,18.137c-1.413,3.189-1.963,3.998-1.889,7.962c0,0.044,47.357-0.098,47.357-0.226
						c0-3.511,0-14.544,0-21.47c0-2.094-1.806-4.932-4.241-4.836c0,0-2.024,6.261-6.38-2.561
						C395.864,703.552,381.198,704.226,381.198,704.226z"/>
				</g>
			</g>
			<g>
				<g>
					<path style="fill:#E1EDEF;" d="M398.834,718.788c-0.349,0-0.7-0.107-0.996-0.319c-9.366-6.76-18.949-0.875-19.051-0.81
						c-0.758,0.476-1.772,0.281-2.275-0.418c-0.506-0.708-0.305-1.665,0.446-2.137c0.116-0.074,11.665-7.156,22.883,0.926
						c0.717,0.517,0.851,1.484,0.296,2.159C399.815,718.577,399.331,718.788,398.834,718.788z"/>
				</g>
			</g>
			<g>
				<g>
					<path style="fill:#E1EDEF;" d="M394.878,725.619c-0.354,0-0.703-0.104-1.005-0.32c-9.311-6.712-18.66-1.051-19.046-0.807
						c-0.765,0.47-1.776,0.277-2.275-0.426c-0.505-0.708-0.307-1.659,0.449-2.13c0.109-0.073,11.665-7.152,22.876,0.922
						c0.719,0.523,0.852,1.485,0.302,2.16C395.856,725.414,395.371,725.619,394.878,725.619z"/>
				</g>
			</g>
		</g>
		<g>
			<path style="fill:#F6FF7B;" d="M538.082,305.937c-2.172-2.333-5.403-3.64-8.112-3.64c-0.982,0-1.944,0.173-2.869,0.513
				c-18.325,6.736-43.749,23.236-63.563,50.3l28.654,28.98c8.77-13.943,20.433-26.469,38.64-48.915
				c4.962-6.117,9.458-10.689,9.94-17.054C541.052,312.418,540.676,308.747,538.082,305.937z"/>
		</g>
		<g style="opacity:0.3;">
			<path style="fill:#142C30;" d="M531.136,393.048c-10.712,62.316-30.185,91.366-43.007,108.892l9.794,14.928
				c7.138-7.493,54.884-81.113,52.286-151.056c-2.069-55.676-21.833-62.828-21.833-62.828l-12.985,8.435
				C515.391,311.418,540.787,336.863,531.136,393.048z"/>
		</g>
		<g>
			<path style="fill:#3F6F77;" d="M529.261,390.637c-10.714,62.318-30.183,91.367-43.005,108.893l10.55,19.473
				c1.893-5.485,51.39-88.833,49.923-158.81c-0.954-45.669-20.228-59.618-20.228-59.618l-12.983,8.436
				C513.518,309.01,538.914,334.455,529.261,390.637z"/>
		</g>
		<g style="opacity:0.26;">
			<polygon style="fill:#142C30;" points="416.472,482.221 359.096,482.5 360.927,505.538 469.311,505.561 470.631,482.211 
				416.472,482.211 			"/>
		</g>
		<g>
			<g>
				<path style="fill:#19DBB6;" d="M414.258,293.792c-12.051,0.443-66.213,7.53-66.213,7.53l5.365,193.489l119.09,0.025l5.9-196.732
					C478.4,298.103,437.516,292.931,414.258,293.792z"/>
			</g>
		</g>
		<g>
			<g>
				<path style="fill:#CC8352;" d="M431.801,305.585c0,6.798-6.393,14.32-15.775,13.645c-11.303-0.804-15.358-7.006-15.358-13.645
					c0-9.722,0-33.494,0-33.494h31.134C431.801,272.091,431.801,295.486,431.801,305.585z"/>
			</g>
		</g>
		<g>
			<g>
				<g>
					<g>
						<g>
							<path style="fill:#B56C3A;" d="M458.81,223.279c-4.789,0-8.685-3.895-8.685-8.688c0-4.796,3.896-8.699,8.685-8.699h6.889
								c4.791,0,8.68,3.902,8.68,8.699c0,4.793-3.889,8.688-8.68,8.688H458.81z"/>
						</g>
					</g>
					<g>
						<g>
							<path style="fill:#F2E6DC;" d="M458.81,218.007c-1.872,0-3.407-1.532-3.407-3.416c0-1.883,1.535-3.422,3.407-3.422h6.889
								c1.877,0,3.4,1.54,3.4,3.422c0,1.883-1.523,3.416-3.4,3.416H458.81z"/>
						</g>
					</g>
				</g>
				<g>
					<g>
						<g>
							<path style="fill:#B56C3A;" d="M366.683,223.279c-4.797,0-8.697-3.895-8.697-8.688c0-4.796,3.9-8.699,8.697-8.699h6.882
								c4.786,0,8.691,3.902,8.691,8.699c0,4.793-3.905,8.688-8.691,8.688H366.683z"/>
						</g>
					</g>
					<g>
						<g>
							<path style="fill:#F2E6DC;" d="M366.683,218.007c-1.882,0-3.413-1.532-3.413-3.416c0-1.883,1.531-3.422,3.413-3.422h6.882
								c1.882,0,3.412,1.54,3.412,3.422c0,1.883-1.53,3.416-3.412,3.416H366.683z"/>
						</g>
					</g>
				</g>
			</g>
			<g>
				<g>
					<path style="fill:#F2E6DC;" d="M400.643,287.357c4.95,1.842,10.173,2.873,15.542,2.873c5.368,0,10.596-1.031,15.536-2.873
						c0-7.789,0-14.694,0-14.694h-31.078C400.643,272.664,400.643,279.547,400.643,287.357z"/>
				</g>
			</g>
			<g>
				<g>
					<path style="fill:#CC8352;" d="M416.185,138.23c24.661,0,44.652,15.836,44.652,40.497v57.146
						c0,24.657-19.991,48.488-44.652,48.488c-24.657,0-44.647-23.831-44.647-48.488v-57.146
						C371.538,154.066,391.528,138.23,416.185,138.23z"/>
				</g>
			</g>
			<g>
				<g>
					<path style="fill:#AA6333;" d="M422.667,227.224c0,0-1.439,0.965-5.762,0.965c-5.234,0-7.204-0.717-7.204-0.717
						s1.073,5.348,6.247,5.405C421.318,232.933,422.774,229.009,422.667,227.224z"/>
				</g>
			</g>
			<g>
				<g>
					<path style="fill:#B77351;" d="M414.808,248.598c-1.287,0-7.621-0.148-10.374-2.911c-0.565-0.563-0.557-1.474,0.002-2.04
						c0.564-0.56,1.473-0.56,2.04,0.006c1.541,1.547,6.009,2.061,8.479,2.061h10.342c0.793,0,1.439,0.645,1.439,1.44
						c0,0.799-0.646,1.441-1.439,1.441h-10.32C414.934,248.595,414.877,248.598,414.808,248.598z"/>
				</g>
			</g>
			<g>
				<g>
					<path style="fill:#B77351;" d="M421.695,253.877h-8.879c-0.798,0-1.439-0.641-1.439-1.441c0-0.796,0.641-1.44,1.439-1.44h8.879
						c0.795,0,1.442,0.644,1.442,1.44C423.138,253.236,422.49,253.877,421.695,253.877z"/>
				</g>
			</g>
			<g>
				<g>
					<path style="fill:#190E07;" d="M399.247,196.084h-14.499c-1.017,0-1.844-0.828-1.844-1.845c0-1.018,0.827-1.845,1.844-1.845
						h14.499c1.021,0,1.838,0.826,1.838,1.845C401.085,195.256,400.268,196.084,399.247,196.084z"/>
				</g>
			</g>
			<g>
				<g>
					<path style="fill:#190E07;" d="M434.584,198.225c-0.762,0-1.468-0.469-1.738-1.223c-0.349-0.965,0.154-2.02,1.11-2.36
						l13.996-4.998c0.964-0.349,2.016,0.156,2.358,1.12c0.343,0.955-0.16,2.015-1.116,2.354l-13.992,4.999
						C434.998,198.189,434.791,198.225,434.584,198.225z"/>
				</g>
			</g>
			<g>
				<g>
					<path style="fill:#190E07;" d="M427.868,124.9c4.722-2.675,6.978-10.361,25.108-10.957c-4.082,4.382-4.684,8.665-4.186,8.767
						c5.777-4.385,16.137-0.374,18.133,0.797c-8.768,3.186-10.116,7.217-8.915,8.517c1.386,1.505,8.54-5.155,19.24,1.53
						c-6.245-1.113-7.7,6.25-8.472,10.923c-0.775,4.693-0.988,4.865-1.652,16.69c-0.973,17.346-6.272,46.283-6.272,46.283
						s-1.103-27.357-2.101-35.926c-1.277-10.998-5.495-17.264-9.83-17.401c-9.011-0.286-22.868,15.355-61.895,1.329
						c-8.533-3.067-14.286,11.643-15.536,23.542c0,5.666,0,26.588,0,26.588s-3.093-13.041-4.133-29.677
						c-0.891-14.267,0.667-23.627-0.225-30.982c-0.446-6.912-0.331-14.849-9.807-15.382c8.916-7.353,20.861-2.528,23.39-1.321
						c1.307,0.628,1.325-4.614-8.239-8.502c14.943-4.777,25.438,1.752,25.805,1.796c0.301,0.033,7.821-4.487,0.949-11.364
						C415.279,109.481,427.372,120.157,427.868,124.9z"/>
				</g>
			</g>
			<g>
				<g style="opacity:0.3;">
					<g>
						<path style="fill:#FF8F71;" d="M432.802,226.08c0,2.549,2.066,4.621,4.616,4.621h10.157c2.548,0,4.612-2.071,4.612-4.621l0,0
							c0-2.551-2.065-4.611-4.612-4.611h-10.157C434.868,221.469,432.802,223.529,432.802,226.08L432.802,226.08z"/>
					</g>
				</g>
				<g style="opacity:0.3;">
					<g>
						<path style="fill:#FF8F71;" d="M380.184,226.08c0,2.549,2.072,4.621,4.621,4.621h10.152c2.55,0,4.614-2.071,4.614-4.621l0,0
							c0-2.551-2.064-4.611-4.614-4.611h-10.152C382.256,221.469,380.184,223.529,380.184,226.08L380.184,226.08z"/>
					</g>
				</g>
			</g>
			<g>
				<g>
					<g>
						<path style="fill:#190E07;" d="M444.251,207.211c0.111,0.387,0.253,0.761,0.253,1.186c0,2.436-2.119,4.425-4.72,4.425
							c-2.599,0-4.716-1.99-4.716-4.425c0-0.425,0.141-0.799,0.249-1.186H444.251z"/>
					</g>
				</g>
				<g>
					<g>
						<path style="fill:#190E07;" d="M398.848,207.211c0.118,0.387,0.249,0.761,0.249,1.186c0,2.436-2.11,4.425-4.72,4.425
							c-2.6,0-4.717-1.99-4.717-4.425c0-0.425,0.145-0.799,0.27-1.186H398.848z"/>
					</g>
				</g>
			</g>
		</g>
		<g>
			<g>
				<path style="fill:#FFFFFF;" d="M395.025,238.279c0,0,7.452,4.333,21.091,4.333c13.627,0,21.738-4.333,21.738-4.333
					s-3.24,18.345-21.738,18.345C400.336,256.624,395.279,241.692,395.025,238.279z"/>
			</g>
		</g>
		<g>
			<g>
				<path style="fill:#FFFFFF;" d="M262.082,245.286c0,0,7.453,4.333,21.091,4.333c13.628,0,21.738-4.333,21.738-4.333
					s-3.241,18.345-21.738,18.345C267.392,263.631,262.337,248.699,262.082,245.286z"/>
			</g>
		</g>
		<g style="opacity:0.27;">
			<polygon style="fill:#142C30;" points="619.44,487.033 514.268,486.917 514.385,489.104 619.678,487.376 			"/>
		</g>
		<g>
			<g>
				<g>
					<g>
						<path style="fill:#51320D;" d="M257.271,217.086c-0.076,2.509,1.907,4.619,4.422,4.696c2.517,0.073,4.621-1.909,4.695-4.421
							c0.082-2.521-1.897-4.623-4.418-4.699C259.451,212.583,257.35,214.559,257.271,217.086z"/>
					</g>
				</g>
				<g>
					<g>
						<path style="fill:#194351;" d="M262.614,213.965l-9.804-0.302L262.614,213.965z"/>
					</g>
					<g>
						<path style="fill:#51320D;" d="M262.614,215.208c0.669,0,1.223-0.536,1.244-1.207c0.017-0.689-0.521-1.259-1.206-1.281
							l-9.808-0.297c-0.677-0.074-1.255,0.517-1.278,1.207c-0.021,0.684,0.521,1.255,1.204,1.281l9.812,0.298
							C262.593,215.208,262.603,215.208,262.614,215.208z"/>
					</g>
				</g>
			</g>
			<g>
				<g>
					<g>
						<path style="fill:#51320D;" d="M308.619,217.244c-0.082,2.507-2.191,4.493-4.697,4.414c-2.517-0.074-4.503-2.18-4.426-4.695
							c0.07-2.521,2.187-4.497,4.706-4.419C306.704,212.614,308.691,214.721,308.619,217.244z"/>
					</g>
				</g>
				<g>
					<g>
						<path style="fill:#194351;" d="M303.475,213.798l9.797,0.302L303.475,213.798z"/>
					</g>
					<g>
						<path style="fill:#51320D;" d="M313.272,215.343c0.67,0,1.221-0.531,1.249-1.204c0.017-0.688-0.525-1.259-1.211-1.284
							l-9.799-0.294c-0.668-0.092-1.259,0.513-1.282,1.201c-0.02,0.683,0.521,1.257,1.206,1.281l9.797,0.299
							C313.25,215.343,313.26,215.343,313.272,215.343z"/>
					</g>
				</g>
			</g>
		</g>
		<g style="opacity:0.42;">
			<path style="fill:#996A5C;" d="M306.759,399.768l-3.467-1.978v-2.961v-5.233v-0.793c0-1.224-0.96-2.216-2.146-2.216h-1.134
				c-0.878-1.177-2.24-1.949-3.786-1.949c-1.542,0-2.902,0.769-3.781,1.941h-2.449c-1.184,0-2.145,0.994-2.145,2.218v0.006v0.79
				h-1.479c-0.251-0.706-0.872-1.205-1.627-1.268l30.931-88.911l-1.543-0.643l-33.816,90.823h-1.604v-2.48
				c0-1.225-0.96-2.217-2.146-2.217h-2.077v-1.376h-2.315v1.376h-0.375c-4.391-17.328-10.199-41.623-14.849-59.846
				c-5.733-22.474,2.44-26.355,2.12-26.601l-2.698-0.193c-5.552,1.601-7.167,10.016-2.538,28.071
				c4.197,16.369,10.507,40.799,15.1,58.569h-4.396v-1.376h-2.316v1.376h-2.081c-1.184,0-2.145,0.992-2.145,2.217v2.48h-2.282
				c-0.265-0.754-0.949-1.3-1.767-1.3c-0.82,0-1.504,0.545-1.77,1.3h-0.912c-1.184,0-2.145,0.991-2.145,2.216v6.079l-3.299,1.877
				c-0.466,0.267-0.636,0.872-0.382,1.354c0.179,0.33,0.509,0.518,0.85,0.518c0.159,0,0.314-0.04,0.466-0.125l2.365-1.349v18.737
				c0,1.226,0.96,2.218,2.145,2.218h30.711v0.001c15.353,0-3.898,0,11.539,0h7.632h0.001c1.186,0,2.146-0.993,2.146-2.215v-0.003
				V400.07l2.54,1.446c0.146,0.085,0.307,0.125,0.465,0.125c0.334,0,0.669-0.188,0.844-0.518
				C307.396,400.64,307.228,400.035,306.759,399.768z"/>
		</g>
		<g>
			<g>
				<path style="fill:#507E8E;" d="M273.718,408.431l-1.178-4.382c-0.114-0.427-13.679-51.095-20.931-78.455
					c-4.627-17.466-1.969-25.925,3.585-27.475l4.299,0.16c0.319,0.239-10.989,3.584-5.256,25.322
					c6.539,24.786,16.333,62.695,19.511,74.412l38.62-99.734l3.424,0.877L273.718,408.431z"/>
			</g>
		</g>
		<g>
			<g>
				<g>
					<path style="fill:#9BB8C6;" d="M244.064,398.444c0.159,0,0.314-0.039,0.465-0.121l4.199-2.315
						c0.471-0.258,0.643-0.846,0.381-1.311c-0.258-0.468-0.842-0.638-1.306-0.38l-4.207,2.316c-0.466,0.257-0.635,0.842-0.383,1.31
						C243.395,398.262,243.724,398.444,244.064,398.444z"/>
				</g>
			</g>
			<g>
				<g>
					<path style="fill:#9BB8C6;" d="M304.073,398.444c-0.158,0-0.319-0.039-0.465-0.121l-4.208-2.315
						c-0.464-0.258-0.636-0.846-0.38-1.311c0.259-0.468,0.843-0.638,1.315-0.38l4.199,2.316c0.469,0.257,0.637,0.842,0.38,1.31
						C304.74,398.262,304.408,398.444,304.073,398.444z"/>
				</g>
			</g>
			<g>
				<path style="fill:#9FB8C6;" d="M280.48,387.437c0,1.047,0.852,1.897,1.896,1.897c1.049,0,1.901-0.85,1.901-1.897
					c0-1.05-0.853-1.901-1.901-1.901C281.332,385.536,280.48,386.387,280.48,387.437z"/>
			</g>
			<g>
				<path style="fill:#9FB8C6;" d="M249.821,387.437c0,1.047,0.852,1.897,1.901,1.897c1.045,0,1.896-0.85,1.896-1.897
					c0-1.05-0.852-1.901-1.896-1.901C250.673,385.536,249.821,386.387,249.821,387.437z"/>
			</g>
			<g>
				<path style="fill:#799BAA;" d="M289.209,386.793c0,2.646,2.15,4.792,4.793,4.792c2.646,0,4.797-2.145,4.797-4.792
					c0-2.648-2.151-4.793-4.797-4.793C291.358,382,289.209,384.145,289.209,386.793z"/>
			</g>
			<g>
				<g>
					<rect x="269.949" y="380.922" style="fill:#FFFFFF;" width="2.316" height="2.144"/>
				</g>
				<g>
					<rect x="259.997" y="380.922" style="fill:#FFFFFF;" width="2.317" height="2.144"/>
				</g>
			</g>
			<g>
				<path style="fill:#799BAA;" d="M255.771,384.396c0-1.185,0.96-2.145,2.145-2.145h16.428c1.185,0,2.145,0.96,2.145,2.145v4.111
					h-20.717V384.396z"/>
			</g>
			<g>
				<path style="fill:#C8E1F4;" d="M246.896,415.143c0,1.185,0.96,2.145,2.145,2.145h49.883c1.185,0,2.145-0.96,2.145-2.145v-28.35
					h-52.027c-1.185,0-2.145,0.96-2.145,2.145V415.143z"/>
			</g>
			<g>
				<path style="fill:#C8E1F4;" d="M285.627,417.291h13.297c1.185,0,2.145-0.96,2.145-2.144v-29.118c0-1.184-0.96-2.145-2.145-2.145
					h-11.152c-1.184,0-2.145,0.96-2.145,2.145V417.291z"/>
			</g>
			<g>
				<path style="fill:#B4CDE3;" d="M301.068,415.145c0,1.185-0.961,2.146-2.146,2.146h-13.295v-25.434h15.441V415.145z"/>
			</g>
			<g style="opacity:0.65;">
				<path style="fill:#9FB8C6;" d="M291.29,417.291h-5.663v-31.27c0-1.185,0.961-2.145,2.146-2.145h3.518V417.291z"/>
			</g>
			<g>
				<path style="fill:#FFFFFF;" d="M254.088,402.04c0,6.651,5.393,12.044,12.047,12.044c6.649,0,12.043-5.392,12.043-12.044
					c0-6.651-5.394-12.042-12.043-12.042C259.48,389.999,254.088,395.39,254.088,402.04z"/>
			</g>
			<g>
				<path style="fill:#799BAA;" d="M256.391,392.225c-2.445,2.477-3.958,5.877-3.958,9.634c0,7.57,6.136,13.706,13.704,13.706
					c3.238,0,6.209-1.121,8.554-2.997c-2.486,2.512-5.934,4.07-9.747,4.07c-7.565,0-13.7-6.137-13.7-13.704
					C251.243,398.599,253.251,394.737,256.391,392.225z"/>
			</g>
			<g>
				<path style="fill:#799BAA;" d="M255.943,402.04c0,5.626,4.565,10.184,10.191,10.184c5.624,0,10.18-4.557,10.18-10.184
					c0-5.624-4.556-10.184-10.18-10.184C260.508,391.857,255.943,396.417,255.943,402.04z"/>
			</g>
			<g>
				<path style="fill:#C8E1F4;" d="M257.56,402.04c0,4.737,3.837,8.575,8.574,8.575c4.732,0,8.569-3.837,8.569-8.575
					c0-4.733-3.837-8.572-8.569-8.572C261.397,393.469,257.56,397.307,257.56,402.04z"/>
			</g>
			<g>
				<path style="fill:#FFFFFF;" d="M295.901,387.676c0,0.544,0.443,0.986,0.986,0.986c0.547,0,0.989-0.442,0.989-0.986
					c0-0.544-0.442-0.989-0.989-0.989C296.345,386.688,295.901,387.132,295.901,387.676z"/>
			</g>
			<g>
				<path style="fill:#799BAA;" d="M294.892,386.186c-0.3,0.429-0.475,0.95-0.475,1.512c0,1.471,1.188,2.662,2.662,2.662
					c0.398,0,0.776-0.089,1.115-0.245c-0.482,0.691-1.281,1.148-2.187,1.148c-1.472,0-2.664-1.191-2.664-2.662
					C293.345,387.53,293.977,386.607,294.892,386.186z"/>
			</g>
			<g>
				<path style="fill:#FFFFD4;" d="M280.092,391.262c0,0.877,0.713,1.588,1.59,1.588c0.88,0,1.587-0.711,1.587-1.588
					c0-0.877-0.707-1.587-1.587-1.587C280.805,389.675,280.092,390.385,280.092,391.262z"/>
			</g>
			<g>
				<path style="fill:#799BAA;" d="M248.716,413.535c0,0.664,0.538,1.201,1.201,1.201h1.117c0.663,0,1.201-0.538,1.201-1.201v-2.622
					c0-0.664-0.538-1.201-1.201-1.201h-1.117c-0.663,0-1.201,0.538-1.201,1.201V413.535z"/>
			</g>
			<g>
				<rect x="260.642" y="400.454" style="fill:#FFFFFF;" width="10.981" height="3.174"/>
			</g>
			<g style="opacity:0.31;">
				<rect x="281.682" y="386.793" style="fill:#9FB8C6;" width="3.945" height="30.498"/>
			</g>
		</g>
	</g>
	<g>
		<defs>
			<path id="SVGID_1_" d="M414.258,293.792c-12.051,0.443-66.213,7.53-66.213,7.53l5.365,193.489l119.09,0.025l5.9-196.732
				C478.4,298.103,437.516,292.931,414.258,293.792z"/>
		</defs>
		<clipPath id="SVGID_00000088113228114474794620000010922169397792487333_">
			<use xlink:href="#SVGID_1_"  style="overflow:visible;"/>
		</clipPath>
		<g style="clip-path:url(#SVGID_00000088113228114474794620000010922169397792487333_);">
			<g style="opacity:0.7;">
				<rect x="319.998" y="345.941" style="fill:#FFFFFF;" width="174.5" height="7.344"/>
			</g>
			<g style="opacity:0.7;">
				<rect x="319.998" y="361.296" style="fill:#FFFFFF;" width="174.5" height="7.344"/>
			</g>
			<g style="opacity:0.7;">
				<rect x="319.998" y="376.651" style="fill:#FFFFFF;" width="174.5" height="7.344"/>
			</g>
			<g style="opacity:0.7;">
				<rect x="319.998" y="392.006" style="fill:#FFFFFF;" width="174.5" height="7.344"/>
			</g>
			<g style="opacity:0.7;">
				<rect x="319.998" y="407.361" style="fill:#FFFFFF;" width="174.5" height="7.344"/>
			</g>
			<g style="opacity:0.7;">
				<rect x="319.998" y="422.716" style="fill:#FFFFFF;" width="174.5" height="7.344"/>
			</g>
			<g style="opacity:0.7;">
				<rect x="319.998" y="438.072" style="fill:#FFFFFF;" width="174.5" height="7.344"/>
			</g>
			<g style="opacity:0.7;">
				<rect x="319.998" y="453.426" style="fill:#FFFFFF;" width="174.5" height="7.344"/>
			</g>
			<g style="opacity:0.7;">
				<rect x="319.998" y="468.782" style="fill:#FFFFFF;" width="174.5" height="7.344"/>
			</g>
			<g style="opacity:0.7;">
				<rect x="319.998" y="484.137" style="fill:#FFFFFF;" width="174.5" height="7.344"/>
			</g>
		</g>
	</g>
	<g style="opacity:0.42;">
		<path style="fill:#996A5C;" d="M351.331,429.441c0,0,1.666-33.666,4-70.333c1.906-29.94,10.333-65.333,10.333-65.333
			s0.984,1.777,7.001,2c9,0.333,8,1,8,1s-7.333,15-18,69C359.369,382.46,351.331,429.441,351.331,429.441z"/>
	</g>
	<g>
		<path style="fill:#A9AA8F;" d="M351.498,428.941c0,0-3.834-33.166-1.5-69.833c1.906-29.94,10.333-65.333,10.333-65.333
			s5.317-2.89,11.334-2.667c9,0.333,9.666,4,9.666,4s-17.333,22.333-24.333,79.833C354.942,391.824,351.498,428.941,351.498,428.941
			z"/>
	</g>
	<g style="opacity:0.42;">
		<path style="fill:#996A5C;" d="M475.246,429.441c0,0-1.666-33.666-4-70.333c-1.906-29.94-10.333-65.333-10.333-65.333
			s-0.565,0.443-6.582,0.666c-9,0.334-6,2.667-6,2.667s4,14,14.667,68C466.294,381.793,475.246,429.441,475.246,429.441z"/>
	</g>
	<g>
		<path style="fill:#A9AA8F;" d="M475.079,428.941c0,0,3.834-33.166,1.5-69.833c-1.906-29.94-10.333-65.333-10.333-65.333
			s-5.317-2.89-11.334-2.667c-9,0.333-9.666,4-9.666,4s17.333,22.333,24.333,79.833
			C471.635,391.824,475.079,428.941,475.079,428.941z"/>
	</g>
</g>
</svg>
