<svg id="visual" viewBox="0 0 1920 1080" width="1920" height="1080" xmlns="http://www.w3.org/2000/svg" xmlns:xlink="http://www.w3.org/1999/xlink" version="1.1"><path d="M0 87L160 105C320 123 640 159 960 166.3C1280 173.7 1600 152.3 1760 141.7L1920 131L1920 0L1760 0C1600 0 1280 0 960 0C640 0 320 0 160 0L0 0Z" fill="#ffffff"></path><path d="M0 401L160 428C320 455 640 509 960 478.3C1280 447.7 1600 332.3 1760 274.7L1920 217L1920 129L1760 139.7C1600 150.3 1280 171.7 960 164.3C640 157 320 121 160 103L0 85Z" fill="#eaf7fb"></path><path d="M0 541L160 568C320 595 640 649 960 604C1280 559 1600 415 1760 343L1920 271L1920 215L1760 272.7C1600 330.3 1280 445.7 960 476.3C640 507 320 453 160 426L0 399Z" fill="#d4eff8"></path><path d="M0 692L160 706.5C320 721 640 750 960 703.2C1280 656.3 1600 533.7 1760 472.3L1920 411L1920 269L1760 341C1600 413 1280 557 960 602C640 647 320 593 160 566L0 539Z" fill="#bee7f4"></path><path d="M0 714L160 732C320 750 640 786 960 751.8C1280 717.7 1600 613.3 1760 561.2L1920 509L1920 409L1760 470.3C1600 531.7 1280 654.3 960 701.2C640 748 320 719 160 704.5L0 690Z" fill="#a7dff0"></path><path d="M0 822L160 822C320 822 640 822 960 786C1280 750 1600 678 1760 642L1920 606L1920 507L1760 559.2C1600 611.3 1280 715.7 960 749.8C640 784 320 748 160 730L0 712Z" fill="#8ed7ec"></path><path d="M0 941L160 948.2C320 955.3 640 969.7 960 978.7C1280 987.7 1600 991.3 1760 993.2L1920 995L1920 604L1760 640C1600 676 1280 748 960 784C640 820 320 820 160 820L0 820Z" fill="#72cfe8"></path><path d="M0 984L160 998.3C320 1012.7 640 1041.3 960 1052.2C1280 1063 1600 1056 1760 1052.5L1920 1049L1920 993L1760 991.2C1600 989.3 1280 985.7 960 976.7C640 967.7 320 953.3 160 946.2L0 939Z" fill="#4fc6e5"></path><path d="M0 1081L160 1081C320 1081 640 1081 960 1081C1280 1081 1600 1081 1760 1081L1920 1081L1920 1047L1760 1050.5C1600 1054 1280 1061 960 1050.2C640 1039.3 320 1010.7 160 996.3L0 982Z" fill="#02bee1"></path></svg>